<?xml version="1.0" encoding="UTF-8"?>
<svg width="13.5mm" height="19.84mm" version="1.1" viewBox="0 0 13.5 19.84" xmlns="http://www.w3.org/2000/svg">
	<path d="m13.51 18.07c0 0.4133-0.3342 0.7462-0.7446 0.7462-0.3069 0-0.5615-0.1778-0.6821-0.4358 0 0-1.353-3.739-1.771-4.985-1.054 0.05768-4.892 0.381-4.927 0.381-0.9518 0.08044-1.779-0.6274-1.861-1.574l-0.3503-4.538-0.1556-2.137c-0.05398-0.6999 0.389-1.042 0.8584-1.199 0.2482-0.08256 0.7136-0.1662 1.285 0.09235 0.6634 0.3048 0.9473 0.9706 1.079 1.698 0.07197 0.5234 0.2291 1.768 0.2291 1.768s3.898 0.01111 3.905 0.0135c0.3167 0.01984 0.562 0.2781 0.562 0.5975 0 0.2911-0.2051 0.5326-0.476 0.5856-0.01455 0.00397-3.874 0.2768-3.874 0.2768l0.1254 1.9 4.085-0.03069c0.4988-0.0336 0.9608 0.2776 1.101 0.7546 0 0 1.61 6.001 1.61 6.083m-7.482-16.51c0 1.23-0.6671 2.276-1.631 2.276-0.9637 0-1.627-1.012-1.627-2.276 0-0.9586 0.6634-1.558 1.627-1.558 0.9639 0 1.631 0.5996 1.631 1.558m4.988 15.16c-0.1561-0.4384-0.3048-0.8478-0.4665-1.302-0.04154-0.1275-0.2085-0.1151-0.2551 0.01138-0.6297 1.778-2.332 3.043-4.324 3.043-2.533 0-4.593-2.056-4.593-4.596 0-1.306 0.5456-2.484 1.423-3.318 0.1641-0.1516 0.1463-0.4067 0.1463-0.4067l-0.08573-1.057s-0.03069-0.3048-0.2921-0.1215c-1.549 1.078-2.564 2.874-2.564 4.906-5.292e-4 3.3 2.667 5.969 5.964 5.969 2.098 0 3.929-1.1 4.99-2.731 0.04234-0.06827 0.1045-0.2231 0.05398-0.3964" style="fill:white"/>
</svg>
