<?xml version="1.0" encoding="UTF-8" standalone="no"?>
<svg width="6.666" height="7.500" viewBox="0 0 1.7638919 1.98446" version="1.1" xmlns="http://www.w3.org/2000/svg">
  <path
     d="M 1.488283,1.27887 1.763892,1.44423 1.708772,1.53243 1.433163,1.37809 1.455203,1.66473 H 1.355983 L 1.333943,1.31195 0.937068,1.09146 v 0.452 L 1.234725,1.7419 1.179605,1.8191 0.937069,1.66476 v 0.3197 H 0.826825 V 1.66476 L 0.58429,1.8191 0.52917,1.7419 0.826826,1.54346 v -0.452 L 0.429949,1.31195 0.407909,1.66473 H 0.308689 L 0.330729,1.37809 0.05512,1.53243 0,1.44423 0.275608,1.27887 0.011025,1.14657 0.055115,1.06937 0.374822,1.22371 0.7717,0.9922 0.374822,0.77171 0.055115,0.92606 0.011025,0.83786 0.275608,0.70557 0,0.55123 0.05512,0.45203 0.330729,0.60637 0.308689,0.31974 h 0.09922 L 0.429949,0.67252 0.826826,0.893 V 0.44101 L 0.52917,0.24257 0.58429,0.16537 0.826825,0.31971 V 0 H 0.937069 V 0.31971 L 1.179605,0.16537 1.234725,0.24257 0.937068,0.44101 V 0.893 L 1.333943,0.67252 1.355983,0.31974 h 0.09922 L 1.433163,0.60637 1.708772,0.45203 1.763892,0.55123 1.488283,0.70557 1.752867,0.83786 1.708767,0.92606 1.389063,0.77171 0.992185,0.9922 1.389063,1.22371 1.708767,1.06937 l 0.0441,0.0772 z"
     style="fill:white" />
</svg>
